<svg width="350" height="250" xmlns="http://www.w3.org/2000/svg" style="border-radius: 14px;" >
<rect width="100%" height="100%" fill="#f0f8ff" />
<rect x="0" y="0" width="350" height="40" fill="#2c3e50" />
<text x="175" y="25" font-family="Arial, sans-serif" font-size="18" font-weight="bold" fill="white" text-anchor="middle">QSL CARD DN42 AS4242421771 </text>
<text x="20" y="85" font-family="Arial, sans-serif" font-size="13" fill="#2c3e50">MNT: <tspan font-weight="bold">IEDON-MNT</tspan></text>
<text x="20" y="110" font-family="Arial, sans-serif" font-size="13" fill="#2c3e50">ASN: 4242422189</text>
<text x="20" y="135" font-family="Arial, sans-serif" font-size="13" fill="#2c3e50">ADDR: fd42:4242:2189::1</text>
<text x="20" y="160" font-family="Arial, sans-serif" font-size="13" fill="#2c3e50">DATE: 2025-08-21 UTC 19:10</text>
<text x="20" y="185" font-family="Arial, sans-serif" font-size="13" fill="#2c3e50">RTT: 2.024ms</text>
<line x1="0" y1="220" x2="350" y2="220" stroke="#2c3e50" stroke-width="1" />
<text x="20" y="238" font-family="Arial, sans-serif" font-size="12" fill="#2c3e50">Happy peering!</text>
<polygon points="264,155 257,167.12 243,167.12 236,155 243,142.88 257,142.88" fill="#2c3e50ff" stroke="none" />
<polygon points="286.73,141.88 279.73,154 265.73,154 258.73,141.88 265.73,129.75 279.73,129.75" fill="#2c3e50cf" stroke="none" />
<polygon points="286.73,168.12 279.73,180.25 265.73,180.25 258.73,168.12 265.73,156 279.73,156" fill="#2c3e50cf" stroke="none" />
<polygon points="309.46,128.75 302.46,140.88 288.46,140.88 281.46,128.75 288.46,116.63 302.46,116.63" fill="#2c3e509f" stroke="none" />
<polygon points="309.46,155 302.46,167.12 288.46,167.12 281.46,155 288.46,142.88 302.46,142.88" fill="#2c3e509f" stroke="none" />
<polygon points="332.2,168.12 325.2,180.25 311.2,180.25 304.2,168.12 311.2,156 325.2,156" fill="#2c3e506f" stroke="none" />
<text x="247" y="238" font-family="Arial, sans-serif" font-size="10" fill="#7f8c8d" text-anchor="start">Token ID: #000002</text>
</svg>
