<svg width="350" height="250" xmlns="http://www.w3.org/2000/svg" style="border-radius: 14px;" >
  <!-- Background -->
  <rect width="100%" height="100%" fill="#f0f8ff" />
  
  <!-- Title area -->
  <rect x="0" y="0" width="350" height="40" fill="#2c3e50" />
  <text x="175" y="25" font-family="Arial, sans-serif" font-size="18" font-weight="bold" fill="white" text-anchor="middle">QSL CARD DN42 AS4242421771 </text>
  
  <!-- Main area -->
  <text x="20" y="70" font-family="Arial, sans-serif" font-size="14" fill="#2c3e50">MNT: <tspan font-weight="bold">FURRY-MNT</tspan></text>
  <text x="20" y="95" font-family="Arial, sans-serif" font-size="14" fill="#2c3e50">ASN: AS4242420800</text>
  <text x="20" y="120" font-family="Arial, sans-serif" font-size="14" fill="#2c3e50">ULA: fdda:8ca4:1556::a</text>
  <text x="20" y="145" font-family="Arial, sans-serif" font-size="14" fill="#2c3e50">DATE: 2023-11-15 UTC 14:30</text>
  <text x="20" y="170" font-family="Arial, sans-serif" font-size="14" fill="#2c3e50">MODE: BGP over WireGuard</text>
  <text x="20" y="195" font-family="Arial, sans-serif" font-size="14" fill="#2c3e50">RTT: 10ms</text>
  
  <!-- Divider line -->
  <line x1="20" y1="215" x2="330" y2="215" stroke="#2c3e50" stroke-width="1" />
  
  <!-- Comments area-->
  <text x="20" y="234" font-family="Arial, sans-serif" font-size="12" fill="#2c3e50">Happy peering!</text>
  
  <!-- Decorators - Hexagons -->
  <polygon points="268,150 259,165.5884572681199 241,165.5884572681199 232,150 241,134.4115427318801 259,134.4115427318801" fill="#3498dbff" stroke="none" />
<polygon points="296.73205080756884,133.4115427318801 287.73205080756884,149 269.73205080756884,149 260.73205080756884,133.4115427318801 269.73205080756884,117.82308546376021 287.73205080756884,117.82308546376021" fill="#3498dbcf" stroke="none" />
<polygon points="296.7320508075689,166.5884572681199 287.7320508075689,182.1769145362398 269.7320508075689,182.1769145362398 260.7320508075689,166.5884572681199 269.7320508075689,151 287.7320508075689,151" fill="#3498dbcf" stroke="none" />
<polygon points="325.4641016151377,116.8230854637602 316.4641016151377,132.41154273188008 298.4641016151377,132.4115427318801 289.4641016151377,116.8230854637602 298.4641016151377,101.2346281956403 316.4641016151377,101.2346281956403" fill="#3498db9f" stroke="none" />
<polygon points="325.4641016151378,150 316.4641016151378,165.5884572681199 298.4641016151378,165.5884572681199 289.4641016151378,150 298.4641016151378,134.4115427318801 316.4641016151378,134.4115427318801" fill="#3498db9f" stroke="none" />
<polygon points="354.1961524227067,166.5884572681199 345.1961524227067,182.1769145362398 327.1961524227067,182.1769145362398 318.1961524227067,166.5884572681199 327.1961524227067,151 345.1961524227067,151" fill="#3498db6f" stroke="none" />



  
  <!-- Bottom info -->
  <text x="247" y="235" font-family="Arial, sans-serif" font-size="10" fill="#7f8c8d" text-anchor="start">Token ID: #000001</text>
</svg>