<svg width="350" height="250" xmlns="http://www.w3.org/2000/svg" style="border-radius: 14px;" >
  <!-- Background -->
  <rect width="100%" height="100%" fill="#f0f8ff" />
  
  <!-- Title area -->
  <rect x="0" y="0" width="350" height="40" fill="#2c3e50" />
  <text x="175" y="25" font-family="Arial, sans-serif" font-size="18" font-weight="bold" fill="white" text-anchor="middle">QSL CARD DN42 AS4242421771 </text>
  
  <!-- Main area -->
  <text x="20" y="70" font-family="Arial, sans-serif" font-size="14" fill="#2c3e50">MNT: <tspan font-weight="bold">FURRY-MNT</tspan></text>
  <text x="20" y="95" font-family="Arial, sans-serif" font-size="14" fill="#2c3e50">ASN: AS4242420800</text>
  <text x="20" y="120" font-family="Arial, sans-serif" font-size="14" fill="#2c3e50">ADDR: fdda:8ca4:1556::a</text>
  <text x="20" y="145" font-family="Arial, sans-serif" font-size="14" fill="#2c3e50">DATE: 2023-11-15 UTC 14:30</text>
  <text x="20" y="170" font-family="Arial, sans-serif" font-size="14" fill="#2c3e50">MODE: BGP over WireGuard</text>
  <text x="20" y="195" font-family="Arial, sans-serif" font-size="14" fill="#2c3e50">RTT: 10ms</text>
  
  <!-- Divider line -->
  <line x1="20" y1="215" x2="330" y2="215" stroke="#2c3e50" stroke-width="1" />
  
  <!-- Comments area-->
  <text x="20" y="234" font-family="Arial, sans-serif" font-size="12" fill="#2c3e50">Happy peering!</text>
  
  <!-- Decorators - Hexagons -->
  <polygon points="256,150 248,163.85640646055103 232,163.85640646055103 224,150 232,136.14359353944897 248,136.14359353944897" fill="#3498dbff" stroke="none" />
<polygon points="281.7320508075689,135.14359353944897 273.7320508075689,149 257.7320508075689,149 249.7320508075689,135.14359353944897 257.7320508075689,121.28718707889796 273.7320508075689,121.28718707889796" fill="#3498dbcf" stroke="none" />
<polygon points="281.7320508075689,164.85640646055103 273.7320508075689,178.71281292110206 257.7320508075689,178.71281292110206 249.7320508075689,164.85640646055103 257.7320508075689,151 273.7320508075689,151" fill="#3498dbcf" stroke="none" />
<polygon points="307.4641016151378,120.28718707889794 299.4641016151378,134.14359353944897 283.4641016151378,134.14359353944897 275.4641016151378,120.28718707889794 283.4641016151378,106.43078061834693 299.4641016151378,106.43078061834693" fill="#3498db9f" stroke="none" />
<polygon points="307.4641016151378,150 299.4641016151378,163.85640646055103 283.4641016151378,163.85640646055103 275.4641016151378,150 283.4641016151378,136.14359353944897 299.4641016151378,136.14359353944897" fill="#3498db9f" stroke="none" />
<polygon points="333.1961524227067,164.85640646055103 325.1961524227067,178.71281292110206 309.1961524227067,178.71281292110206 301.1961524227067,164.85640646055103 309.1961524227067,151 325.1961524227067,151" fill="#3498db6f" stroke="none" />



  
  <!-- Bottom info -->
  <text x="247" y="235" font-family="Arial, sans-serif" font-size="10" fill="#7f8c8d" text-anchor="start">Token ID: #000001</text>
</svg>