<svg width="350" height="250" xmlns="http://www.w3.org/2000/svg" style="border-radius: 14px;" ><rect width="100%" height="100%" fill="#f0f8ff" /><style>text { font-family: Arial, sans-serif; font-size: 13px; } text.title { font-size: 18px; }text.small { font-size: 12px; }text.smaller { font-size: 10px; }polygon { stroke: none; }</style><rect x="0" y="0" width="350" height="40" fill="#2c3e50" /><text x="175" y="25" class="title" font-weight="bold" fill="white" text-anchor="middle">QSL CARD DN42 AS4242421771</text><text x="20" y="85" fill="#2c3e50">MNT: <tspan font-weight="bold">MOE233-MNT</tspan></text><text x="20" y="110" fill="#2c3e50">ASN: 4242420253</text><text x="20" y="135" fill="#2c3e50">ADDR: fd05:4b:cce::1</text><text x="20" y="160" fill="#2c3e50">DATE: 2024-12-29</text><text x="20" y="185" fill="#2c3e50">RTT: 8.46ms</text><line x1="0" y1="220" x2="350" y2="220" stroke="#2c3e50" stroke-width="1" /><text x="20" y="238" class="small" fill="#2c3e50">Happy peering!</text><polygon points="264,155 257,167.1 243,167.1 236,155 243,142.9 257,142.9" fill="#2c3e50ff"  /><polygon points="286.7,141.9 279.7,154 265.7,154 258.7,141.9 265.7,129.8 279.7,129.8" fill="#2c3e50cf" /><polygon points="286.7,168.1 279.7,180.2 265.7,180.2 258.7,168.1 265.7,156 279.7,156" fill="#2c3e50cf" /><polygon points="309.5,128.8 302.5,140.9 288.5,140.9 281.5,128.8 288.5,116.6 302.5,116.6" fill="#2c3e509f"/><polygon points="309.5,155 302.5,167.1 288.5,167.1 281.5,155 288.5,142.9 302.5,142.9" fill="#2c3e509f" /><polygon points="332.2,168.1 325.2,180.2 311.2,180.2 304.2,168.1 311.2,156 325.2,156" fill="#2c3e506f"/><text x="247" y="238" class="smaller" fill="#7f8c8d" text-anchor="start">Token ID: #000003</text></svg>
